<svg id="SvgjsSvg1068" xmlns="http://www.w3.org/2000/svg" version="1.1" xmlns:xlink="http://www.w3.org/1999/xlink" xmlns:svgjs="http://svgjs.com/svgjs" width="10" height="11" viewBox="0 0 10 11"><title>dot</title><desc>Created with Avocode.</desc><defs id="SvgjsDefs1069"><filter id="SvgjsFilter1071" width="200%" height="200%" x="-50%" y="-50%"><feMorphology id="SvgjsFeMorphology1072" operator="dilate" radius="0" result="SvgjsFeMorphology1072Out" in="SourceGraphic"></feMorphology><feOffset id="SvgjsFeOffset1073" dx="0" dy="1" result="SvgjsFeOffset1073Out" in="SvgjsFeMorphology1072Out"></feOffset><feGaussianBlur id="SvgjsFeGaussianBlur1074" stdDeviation="0 " result="SvgjsFeGaussianBlur1074Out" in="SvgjsFeOffset1073Out"></feGaussianBlur><feComposite id="SvgjsFeComposite1075" in="SvgjsFeGaussianBlur1074Out" in2="SourceAlpha" operator="out" result="SvgjsFeComposite1075Out"></feComposite></filter><linearGradient id="SvgjsLinearGradient1080" gradientUnits="userSpaceOnUse" x1="865.75" y1="1770.25" x2="865.75" y2="1760.25"><stop id="SvgjsStop1081" stop-opacity="0.1" stop-color="#ffffff" offset="0"></stop><stop id="SvgjsStop1082" stop-opacity="0.1" stop-color="#000000" offset="1"></stop></linearGradient><filter id="SvgjsFilter1085" width="200%" height="200%" x="-50%" y="-50%"><feGaussianBlur id="SvgjsFeGaussianBlur1086" stdDeviation="0.5 " result="SvgjsFeGaussianBlur1086Out" in="SourceGraphic"></feGaussianBlur></filter><mask id="SvgjsMask1087"><path id="SvgjsPath1083" d="M866 1759C868.761 1759 871 1761.24 871 1764C871 1766.76 868.761 1769 866 1769C863.239 1769 861 1766.76 861 1764C861 1761.24 863.239 1759 866 1759Z " fill="#ffffff"></path></mask></defs><path id="SvgjsPath1070" d="M866 1759C868.761 1759 871 1761.24 871 1764C871 1766.76 868.761 1769 866 1769C863.239 1769 861 1766.76 861 1764C861 1761.24 863.239 1759 866 1759Z " fill="#ffffff" fill-opacity="0.5" filter="url(#SvgjsFilter1071)" transform="matrix(1,0,0,1,-861,-1759)"></path><path id="SvgjsPath1076" d="M866 1759C868.761 1759 871 1761.24 871 1764C871 1766.76 868.761 1769 866 1769C863.239 1769 861 1766.76 861 1764C861 1761.24 863.239 1759 866 1759Z " fill="#353339" fill-opacity="0.7" transform="matrix(1,0,0,1,-861,-1759)"></path><path id="SvgjsPath1077" d="M866 1759C868.761 1759 871 1761.24 871 1764C871 1766.76 868.761 1769 866 1769C863.239 1769 861 1766.76 861 1764C861 1761.24 863.239 1759 866 1759Z " fill="#353339" fill-opacity="0.7" transform="matrix(1,0,0,1,-861,-1759)"></path><path id="SvgjsPath1078" d="M866 1759C868.761 1759 871 1761.24 871 1764C871 1766.76 868.761 1769 866 1769C863.239 1769 861 1766.76 861 1764C861 1761.24 863.239 1759 866 1759Z " fill="#353339" fill-opacity="0.7" transform="matrix(1,0,0,1,-861,-1759)"></path><path id="SvgjsPath1079" d="M866 1759C868.761 1759 871 1761.24 871 1764C871 1766.76 868.761 1769 866 1769C863.239 1769 861 1766.76 861 1764C861 1761.24 863.239 1759 866 1759Z " fill="url(#SvgjsLinearGradient1080)" transform="matrix(1,0,0,1,-861,-1759)"></path><path id="SvgjsPath1084" d="M860 1771V1757H872V1771ZM861 1765C861 1767.76 863.239 1770 866 1770C868.761 1770 871 1767.76 871 1765C871 1762.24 868.761 1760 866 1760C863.239 1760 861 1762.24 861 1765Z " fill="#000000" fill-opacity="0.65" stroke-opacity="0.65" stroke-width="0" stroke="#000000" filter="url(#SvgjsFilter1085)" mask="url(&quot;#SvgjsMask1087&quot;)" transform="matrix(1,0,0,1,-861,-1759)"></path></svg>