<svg id="SvgjsSvg1000" xmlns="http://www.w3.org/2000/svg" version="1.1" xmlns:xlink="http://www.w3.org/1999/xlink" xmlns:svgjs="http://svgjs.com/svgjs" width="52" height="53" viewBox="0 0 52 53"><title>Award</title><desc>Created with Avocode.</desc><defs id="SvgjsDefs1001"></defs><path id="SvgjsPath1007" d="M1204.08 985.452C1204.08 978.802 1209.47 973.41 1216.12 973.41C1222.77 973.41 1228.1599999999999 978.802 1228.1599999999999 985.452C1228.1599999999999 992.103 1222.7699999999998 997.494 1216.12 997.494C1209.4699999999998 997.494 1204.08 992.1030000000001 1204.08 985.452ZM1198.67 985.452C1198.67 989.248 1199.88 992.759 1201.94 995.623L1190.7 1009.71L1202.54 1008.12L1202.33 1020.18L1216.12 1002.9L1229.9099999999999 1020.18L1229.6899999999998 1008.12L1241.5399999999997 1009.71L1230.2999999999997 995.623C1232.3599999999997 992.759 1233.5699999999997 989.248 1233.5699999999997 985.452C1233.5699999999997 975.813 1225.7599999999998 968 1216.1199999999997 968C1206.4799999999996 968 1198.6699999999996 975.813 1198.6699999999996 985.452Z " fill="#000000" fill-opacity="1" transform="matrix(1,0,0,1,-1190,-968)"></path></svg>