<svg id="SvgjsSvg1028" xmlns="http://www.w3.org/2000/svg" version="1.1" xmlns:xlink="http://www.w3.org/1999/xlink" xmlns:svgjs="http://svgjs.com/svgjs" width="257.79999999999995" height="257.8000000000002" viewBox="0 0 257.79999999999995 257.8000000000002"><title>Shape 31</title><desc>Created with Avocode.</desc><defs id="SvgjsDefs1029"><filter id="SvgjsFilter1031" width="200%" height="200%" x="-50%" y="-50%"><feMorphology id="SvgjsFeMorphology1032" operator="dilate" radius="0" result="SvgjsFeMorphology1032Out" in="SourceGraphic"></feMorphology><feOffset id="SvgjsFeOffset1033" dx="2.8" dy="2.8" result="SvgjsFeOffset1033Out" in="SvgjsFeMorphology1032Out"></feOffset><feGaussianBlur id="SvgjsFeGaussianBlur1034" stdDeviation="4 " result="SvgjsFeGaussianBlur1034Out" in="SvgjsFeOffset1033Out"></feGaussianBlur><feComposite id="SvgjsFeComposite1035" in="SvgjsFeGaussianBlur1034Out" in2="SourceAlpha" operator="out" result="SvgjsFeComposite1035Out"></feComposite></filter><clipPath id="SvgjsClipPath1040"><path id="SvgjsPath1039" d="M1460 6193V5938H1715V6193ZM1468.712 6065.88C1468.712 6131.6 1521.984 6184.88 1587.7 6184.88C1653.416 6184.88 1706.688 6131.6 1706.688 6065.88C1706.688 6000.16 1653.4160000000002 5946.88 1587.7 5946.88C1521.9840000000002 5946.88 1468.712 6000.16 1468.712 6065.88Z " fill="#ffffff"></path></clipPath><filter id="SvgjsFilter1042" width="200%" height="200%" x="-50%" y="-50%"><feMorphology id="SvgjsFeMorphology1043" operator="dilate" radius="0" result="SvgjsFeMorphology1043Out" in="SourceGraphic"></feMorphology><feOffset id="SvgjsFeOffset1044" dx="2.8" dy="2.8" result="SvgjsFeOffset1044Out" in="SvgjsFeMorphology1043Out"></feOffset><feGaussianBlur id="SvgjsFeGaussianBlur1045" stdDeviation="4 " result="SvgjsFeGaussianBlur1045Out" in="SvgjsFeOffset1044Out"></feGaussianBlur><feComposite id="SvgjsFeComposite1046" in="SvgjsFeGaussianBlur1045Out" in2="SourceAlpha" operator="out" result="SvgjsFeComposite1046Out"></feComposite></filter></defs><path id="SvgjsPath1030" d="M1587.7 5946.88C1653.416 5946.88 1706.688 6000.16 1706.688 6065.88C1706.688 6131.6 1653.4160000000002 6184.88 1587.7 6184.88C1521.9840000000002 6184.88 1468.712 6131.6 1468.712 6065.88C1468.712 6000.16 1521.984 5946.88 1587.7 5946.88Z " fill="#000000" fill-opacity="0.45" filter="url(#SvgjsFilter1031)" transform="matrix(1,0,0,1,-1460,-5938)"></path><path id="SvgjsPath1036" d="M1587.7 5946.88C1653.416 5946.88 1706.688 6000.16 1706.688 6065.88C1706.688 6131.6 1653.4160000000002 6184.88 1587.7 6184.88C1521.9840000000002 6184.88 1468.712 6131.6 1468.712 6065.88C1468.712 6000.16 1521.984 5946.88 1587.7 5946.88Z " fill="#323232" fill-opacity="0" transform="matrix(1,0,0,1,-1460,-5938)"></path><path id="SvgjsPath1037" d="M1587.7 5946.88C1653.416 5946.88 1706.688 6000.16 1706.688 6065.88C1706.688 6131.6 1653.4160000000002 6184.88 1587.7 6184.88C1521.9840000000002 6184.88 1468.712 6131.6 1468.712 6065.88C1468.712 6000.16 1521.984 5946.88 1587.7 5946.88Z " fill="#323232" fill-opacity="0" transform="matrix(1,0,0,1,-1460,-5938)"></path><path id="SvgjsPath1038" d="M1587.7 5946.88C1653.416 5946.88 1706.688 6000.16 1706.688 6065.88C1706.688 6131.6 1653.4160000000002 6184.88 1587.7 6184.88C1521.9840000000002 6184.88 1468.712 6131.6 1468.712 6065.88C1468.712 6000.16 1521.984 5946.88 1587.7 5946.88Z " fill-opacity="0" fill="#ffffff" stroke-dasharray="0" stroke-linejoin="round" stroke-linecap="round" stroke-opacity="1" stroke="#a1a1a1" stroke-miterlimit="50" stroke-width="16" clip-path="url(&quot;#SvgjsClipPath1040&quot;)" transform="matrix(1,0,0,1,-1460,-5938)"></path><path id="SvgjsPath1041" d="M1600.208 6018.12L1552.6000000000001 6065.72L1600.2440000000001 6111.12Z " fill="#000000" fill-opacity="0.45" filter="url(#SvgjsFilter1042)" transform="matrix(1,0,0,1,-1460,-5938)"></path><path id="SvgjsPath1047" d="M1600.208 6018.12L1552.6000000000001 6065.72L1600.2440000000001 6111.12Z " fill="#a1a1a1" fill-opacity="1" transform="matrix(1,0,0,1,-1460,-5938)"></path></svg>