<svg id="SvgjsSvg1048" xmlns="http://www.w3.org/2000/svg" version="1.1" xmlns:xlink="http://www.w3.org/1999/xlink" xmlns:svgjs="http://svgjs.com/svgjs" width="129.4000000000001" height="129.4000000000001" viewBox="0 0 129.4000000000001 129.4000000000001"><title>Shape 31 copy</title><desc>Created with Avocode.</desc><defs id="SvgjsDefs1049"><filter id="SvgjsFilter1051" width="200%" height="200%" x="-50%" y="-50%"><feMorphology id="SvgjsFeMorphology1052" operator="dilate" radius="0" result="SvgjsFeMorphology1052Out" in="SourceGraphic"></feMorphology><feOffset id="SvgjsFeOffset1053" dx="1.4" dy="1.4" result="SvgjsFeOffset1053Out" in="SvgjsFeMorphology1052Out"></feOffset><feGaussianBlur id="SvgjsFeGaussianBlur1054" stdDeviation="2 " result="SvgjsFeGaussianBlur1054Out" in="SvgjsFeOffset1053Out"></feGaussianBlur><feComposite id="SvgjsFeComposite1055" in="SvgjsFeGaussianBlur1054Out" in2="SourceAlpha" operator="out" result="SvgjsFeComposite1055Out"></feComposite></filter><clipPath id="SvgjsClipPath1060"><path id="SvgjsPath1059" d="M2510 3097V2969H2638V3097ZM2574.16 2973.44C2541.2999999999997 2973.44 2514.66 3000.08 2514.66 3032.94C2514.66 3065.8 2541.2999999999997 3092.44 2574.16 3092.44C2607 3092.44 2633.64 3065.8 2633.64 3032.94C2633.64 3000.08 2607 2973.44 2574.16 2973.44Z " fill="#ffffff"></path></clipPath><filter id="SvgjsFilter1062" width="200%" height="200%" x="-50%" y="-50%"><feMorphology id="SvgjsFeMorphology1063" operator="dilate" radius="0" result="SvgjsFeMorphology1063Out" in="SourceGraphic"></feMorphology><feOffset id="SvgjsFeOffset1064" dx="1.4" dy="1.4" result="SvgjsFeOffset1064Out" in="SvgjsFeMorphology1063Out"></feOffset><feGaussianBlur id="SvgjsFeGaussianBlur1065" stdDeviation="2 " result="SvgjsFeGaussianBlur1065Out" in="SvgjsFeOffset1064Out"></feGaussianBlur><feComposite id="SvgjsFeComposite1066" in="SvgjsFeGaussianBlur1065Out" in2="SourceAlpha" operator="out" result="SvgjsFeComposite1066Out"></feComposite></filter></defs><path id="SvgjsPath1050" d="M2574.16 2973.44C2541.2999999999997 2973.44 2514.66 3000.08 2514.66 3032.94C2514.66 3065.8 2541.2999999999997 3092.44 2574.16 3092.44C2607 3092.44 2633.64 3065.8 2633.64 3032.94C2633.64 3000.08 2607 2973.44 2574.16 2973.44Z " fill="#000000" fill-opacity="0.45" filter="url(#SvgjsFilter1051)" transform="matrix(1,0,0,1,-2510,-2969)"></path><path id="SvgjsPath1056" d="M2574.16 2973.44C2541.2999999999997 2973.44 2514.66 3000.08 2514.66 3032.94C2514.66 3065.8 2541.2999999999997 3092.44 2574.16 3092.44C2607 3092.44 2633.64 3065.8 2633.64 3032.94C2633.64 3000.08 2607 2973.44 2574.16 2973.44Z " fill="#323232" fill-opacity="0" transform="matrix(1,0,0,1,-2510,-2969)"></path><path id="SvgjsPath1057" d="M2574.16 2973.44C2541.2999999999997 2973.44 2514.66 3000.08 2514.66 3032.94C2514.66 3065.8 2541.2999999999997 3092.44 2574.16 3092.44C2607 3092.44 2633.64 3065.8 2633.64 3032.94C2633.64 3000.08 2607 2973.44 2574.16 2973.44Z " fill="#323232" fill-opacity="0" transform="matrix(1,0,0,1,-2510,-2969)"></path><path id="SvgjsPath1058" d="M2574.16 2973.44C2541.2999999999997 2973.44 2514.66 3000.08 2514.66 3032.94C2514.66 3065.8 2541.2999999999997 3092.44 2574.16 3092.44C2607 3092.44 2633.64 3065.8 2633.64 3032.94C2633.64 3000.08 2607 2973.44 2574.16 2973.44Z " fill-opacity="0" fill="#ffffff" stroke-dasharray="0" stroke-linejoin="round" stroke-linecap="round" stroke-opacity="1" stroke="#a1a1a1" stroke-miterlimit="50" stroke-width="8" clip-path="url(&quot;#SvgjsClipPath1060&quot;)" transform="matrix(1,0,0,1,-2510,-2969)"></path><path id="SvgjsPath1061" d="M2567.9 3009.06L2591.7000000000003 3032.86L2567.88 3055.56Z " fill="#000000" fill-opacity="0.45" filter="url(#SvgjsFilter1062)" transform="matrix(1,0,0,1,-2510,-2969)"></path><path id="SvgjsPath1067" d="M2567.9 3009.06L2591.7000000000003 3032.86L2567.88 3055.56Z " fill="#a1a1a1" fill-opacity="1" transform="matrix(1,0,0,1,-2510,-2969)"></path></svg>